<svg width="25" height="25" viewBox="0 0 25 25" fill="none" xmlns="http://www.w3.org/2000/svg">
<path d="M23.9577 3.13541C23.9577 3.13541 21.8556 4.37708 20.6868 4.72916C20.0595 4.00782 19.2257 3.49655 18.2983 3.2645C17.3709 3.03246 16.3947 3.09083 15.5015 3.43172C14.6084 3.77261 13.8415 4.37958 13.3045 5.17054C12.7676 5.96149 12.4865 6.89826 12.4993 7.85416V8.89583C10.6688 8.9433 8.85484 8.5373 7.21915 7.714C5.58346 6.8907 4.17676 5.67566 3.12435 4.17708C3.12435 4.17708 -1.04232 13.5521 8.33268 17.7187C6.1874 19.175 3.6318 19.9051 1.04102 19.8021C10.416 25.0104 21.8743 19.8021 21.8743 7.82291C21.8743 7.53333 21.8452 7.24375 21.791 6.95833C22.8535 5.91041 23.9577 3.13541 23.9577 3.13541Z" stroke="#5A534B" stroke-width="1.5" stroke-linecap="round" stroke-linejoin="round"/>
</svg>
