<svg width="25" height="25" viewBox="0 0 25 25" fill="none" xmlns="http://www.w3.org/2000/svg">
<path d="M12.5007 7.49267C9.72973 7.49267 7.4934 9.729 7.4934 12.5C7.4934 15.271 9.72973 17.5073 12.5007 17.5073C15.2717 17.5073 17.508 15.271 17.508 12.5C17.508 9.729 15.2717 7.49267 12.5007 7.49267ZM12.5007 15.7544C10.7087 15.7544 9.24633 14.292 9.24633 12.5C9.24633 10.708 10.7087 9.2456 12.5007 9.2456C14.2927 9.2456 15.7551 10.708 15.7551 12.5C15.7551 14.292 14.2927 15.7544 12.5007 15.7544ZM17.7131 6.1206C17.0662 6.1206 16.5437 6.64306 16.5437 7.29003C16.5437 7.93701 17.0662 8.45947 17.7131 8.45947C18.3601 8.45947 18.8826 7.93945 18.8826 7.29003C18.8828 7.13641 18.8526 6.98425 18.7939 6.84228C18.7352 6.70031 18.6491 6.57132 18.5405 6.46269C18.4318 6.35406 18.3028 6.26793 18.1609 6.20922C18.0189 6.15052 17.8668 6.12041 17.7131 6.1206ZM22.2615 12.5C22.2615 11.1523 22.2737 9.81689 22.198 8.47167C22.1223 6.90917 21.7659 5.52245 20.6233 4.37988C19.4783 3.23486 18.094 2.88085 16.5315 2.80517C15.1838 2.72949 13.8484 2.74169 12.5032 2.74169C11.1555 2.74169 9.82006 2.72949 8.47485 2.80517C6.91235 2.88085 5.52563 3.2373 4.38305 4.37988C3.23803 5.5249 2.88403 6.90917 2.80834 8.47167C2.73266 9.81933 2.74487 11.1548 2.74487 12.5C2.74487 13.8452 2.73266 15.1831 2.80834 16.5283C2.88403 18.0908 3.24047 19.4775 4.38305 20.6201C5.52807 21.7651 6.91235 22.1191 8.47485 22.1948C9.8225 22.2705 11.158 22.2583 12.5032 22.2583C13.8508 22.2583 15.1863 22.2705 16.5315 22.1948C18.094 22.1191 19.4807 21.7627 20.6233 20.6201C21.7683 19.4751 22.1223 18.0908 22.198 16.5283C22.2761 15.1831 22.2615 13.8476 22.2615 12.5ZM20.113 18.2568C19.9348 18.7012 19.72 19.0332 19.3757 19.375C19.0315 19.7192 18.7019 19.9341 18.2576 20.1123C16.9734 20.6226 13.9241 20.5078 12.5007 20.5078C11.0774 20.5078 8.02563 20.6226 6.74145 20.1147C6.29711 19.9365 5.96508 19.7217 5.62328 19.3774C5.27905 19.0332 5.0642 18.7036 4.88598 18.2593C4.37817 16.9727 4.49291 13.9233 4.49291 12.5C4.49291 11.0767 4.37817 8.0249 4.88598 6.74072C5.0642 6.29638 5.27905 5.96435 5.62328 5.62255C5.96752 5.28076 6.29711 5.06347 6.74145 4.88525C8.02563 4.37744 11.0774 4.49218 12.5007 4.49218C13.9241 4.49218 16.9758 4.37744 18.26 4.88525C18.7043 5.06347 19.0364 5.27831 19.3782 5.62255C19.7224 5.96679 19.9373 6.29638 20.1155 6.74072C20.6233 8.0249 20.5085 11.0767 20.5085 12.5C20.5085 13.9233 20.6233 16.9726 20.113 18.2568Z" fill="#5A534B"/>
</svg>
