<?xml version="1.0" encoding="utf-8"?>
<svg viewBox="0 0 27 25" xmlns="http://www.w3.org/2000/svg" xmlns:xlink="http://www.w3.org/1999/xlink"><style>:root>svg{display:none}:root>svg:target{display:block}</style>


<svg viewBox="0 0 27 24" id="arrow-slider" xmlns="http://www.w3.org/2000/svg"><path d="M.94 10.94a1.5 1.5 0 000 2.12l9.545 9.547a1.5 1.5 0 102.122-2.122L4.12 12l8.486-8.485a1.5 1.5 0 10-2.122-2.122L.94 10.94zM27 10.5H2v3h25v-3z"/></svg>


<svg fill="none" viewBox="0 0 25 25" id="facebook" xmlns="http://www.w3.org/2000/svg"><path d="M13 10V8.5c0-.65.15-1 1.2-1h1.3V5h-2C11 5 10 6.65 10 8.5V10H8v2.5h2V20h3v-7.5h2.2l.3-2.5H13z" fill="#5A534B"/></svg>



<svg fill="none" viewBox="0 0 25 25" id="instagram" xmlns="http://www.w3.org/2000/svg"><path d="M12.5 7.493A5 5 0 007.494 12.5a5 5 0 005.008 5.007 5 5 0 005.007-5.007 5 5 0 00-5.007-5.007zm0 8.261A3.261 3.261 0 019.247 12.5a3.261 3.261 0 013.255-3.254 3.261 3.261 0 013.254 3.254 3.261 3.261 0 01-3.254 3.254zm5.213-9.633a1.168 1.168 0 100 2.339 1.166 1.166 0 001.08-1.618 1.168 1.168 0 00-1.08-.721zm4.549 6.379c0-1.348.012-2.683-.064-4.028-.076-1.563-.432-2.95-1.575-4.092-1.145-1.145-2.529-1.5-4.091-1.575-1.348-.076-2.684-.063-4.029-.063-1.348 0-2.683-.013-4.028.063-1.563.076-2.95.432-4.092 1.575-1.145 1.145-1.499 2.53-1.575 4.092-.075 1.347-.063 2.683-.063 4.028 0 1.345-.012 2.683.063 4.028.076 1.563.432 2.95 1.575 4.092 1.145 1.145 2.53 1.5 4.092 1.575 1.348.075 2.683.063 4.028.063 1.348 0 2.683.012 4.029-.063 1.562-.076 2.949-.432 4.091-1.575 1.145-1.145 1.5-2.53 1.575-4.092.078-1.345.064-2.68.064-4.028zm-2.149 5.757a3.1 3.1 0 01-.737 1.118c-.345.344-.674.56-1.118.737-1.285.51-4.334.396-5.757.396-1.424 0-4.475.115-5.76-.393a3.101 3.101 0 01-1.118-.738 3.123 3.123 0 01-.737-1.118c-.508-1.286-.393-4.336-.393-5.759s-.115-4.475.393-5.76c.178-.444.393-.776.737-1.117.345-.342.674-.56 1.118-.738 1.285-.508 4.336-.393 5.76-.393 1.423 0 4.475-.115 5.759.393.444.178.776.393 1.118.738.344.344.56.673.738 1.118.507 1.284.393 4.336.393 5.759s.114 4.473-.396 5.757z" fill="#5A534B"/></svg><svg fill="none" viewBox="0 0 25 25" id="twitter" xmlns="http://www.w3.org/2000/svg"><path d="M23.958 3.135s-2.102 1.242-3.271 1.594a4.666 4.666 0 00-8.188 3.125v1.042a11.104 11.104 0 01-9.375-4.719s-4.166 9.375 5.209 13.542a12.125 12.125 0 01-7.292 2.083c9.375 5.208 20.833 0 20.833-11.98 0-.289-.029-.578-.083-.864 1.063-1.048 2.167-3.823 2.167-3.823z" stroke="#5A534B" stroke-width="1.5" stroke-linecap="round" stroke-linejoin="round"/></svg><svg fill="none" viewBox="0 0 25 25" id="youtube" xmlns="http://www.w3.org/2000/svg"><path d="M23.438 12.432c0-.054 0-.115-.003-.186-.002-.198-.007-.42-.012-.657-.02-.68-.054-1.36-.108-2-.073-.88-.18-1.615-.327-2.167a3.406 3.406 0 00-2.4-2.405c-.69-.185-2.043-.3-3.947-.371-.906-.034-1.875-.056-2.845-.068-.339-.005-.654-.008-.937-.01h-.718c-.283.002-.598.005-.937.01-.97.012-1.939.034-2.845.068-1.904.073-3.259.188-3.947.371a3.402 3.402 0 00-2.4 2.405c-.15.552-.254 1.287-.327 2.168a36.76 36.76 0 00-.108 2c-.007.236-.01.458-.012.656l-.002.186v.136c0 .054 0 .115.002.186.002.198.007.42.012.657.02.68.054 1.36.108 2 .073.88.18 1.615.327 2.167a3.402 3.402 0 002.4 2.405c.688.186 2.043.3 3.947.371.906.034 1.875.056 2.845.068.339.005.654.008.937.01h.718c.283-.002.598-.005.937-.01.97-.012 1.939-.034 2.845-.068 1.904-.073 3.259-.188 3.947-.371a3.398 3.398 0 002.4-2.405c.15-.552.254-1.287.327-2.168.054-.64.088-1.318.108-2 .007-.236.01-.458.012-.656 0-.07.003-.132.003-.186v-.136zm-1.758.127c0 .05 0 .107-.003.173-.002.19-.007.4-.012.627a32.99 32.99 0 01-.102 1.902c-.066.786-.16 1.43-.274 1.863a1.643 1.643 0 01-1.157 1.16c-.513.136-1.804.246-3.56.312a111.254 111.254 0 01-3.723.076h-.698l-.923-.007c-.955-.013-1.91-.035-2.8-.069-1.756-.068-3.05-.176-3.56-.312a1.647 1.647 0 01-1.157-1.16c-.115-.432-.208-1.077-.273-1.863a35.358 35.358 0 01-.103-1.902c-.007-.227-.01-.44-.012-.627 0-.066-.003-.125-.003-.173v-.118c0-.05 0-.107.003-.173.002-.19.007-.4.012-.627.017-.65.051-1.3.103-1.902.065-.786.158-1.43.273-1.863a1.643 1.643 0 011.157-1.16c.513-.136 1.804-.246 3.56-.312a110.923 110.923 0 013.723-.076h.698l.923.007c.955.013 1.91.035 2.8.069 1.756.068 3.05.176 3.56.312a1.647 1.647 0 011.157 1.16c.115.432.208 1.077.273 1.863a35.3 35.3 0 01.103 1.902c.007.227.01.44.012.627 0 .066.003.125.003.173v.118zm-11.353 3.213l5.664-3.296-5.664-3.247v6.543z" fill="#5A534B"/></svg></svg>
