<svg width="25" height="25" viewBox="0 0 25 25" fill="none" xmlns="http://www.w3.org/2000/svg">
<path d="M23.4375 12.4316C23.4375 12.3779 23.4375 12.3169 23.4351 12.2461C23.4326 12.0483 23.4277 11.8262 23.4229 11.5894C23.4033 10.9082 23.3691 10.2295 23.3154 9.58984C23.2422 8.7085 23.1348 7.97363 22.9883 7.42187C22.8337 6.84607 22.5307 6.32092 22.1095 5.89892C21.6884 5.47692 21.1639 5.17284 20.5884 5.01709C19.8975 4.83154 18.5449 4.7168 16.6406 4.646C15.7349 4.61182 14.7656 4.58984 13.7964 4.57764C13.457 4.57275 13.1421 4.57031 12.8589 4.56787H12.1411C11.8579 4.57031 11.543 4.57275 11.2036 4.57764C10.2344 4.58984 9.26514 4.61182 8.35938 4.646C6.45508 4.71924 5.1001 4.83398 4.41162 5.01709C3.83594 5.17246 3.3112 5.4764 2.89 5.89847C2.4688 6.32053 2.16592 6.84588 2.01172 7.42187C1.86279 7.97363 1.75781 8.7085 1.68457 9.58984C1.63086 10.2295 1.59668 10.9082 1.57715 11.5894C1.56982 11.8262 1.56738 12.0483 1.56494 12.2461C1.56494 12.3169 1.5625 12.3779 1.5625 12.4316V12.5684C1.5625 12.6221 1.5625 12.6831 1.56494 12.7539C1.56738 12.9517 1.57227 13.1738 1.57715 13.4106C1.59668 14.0918 1.63086 14.7705 1.68457 15.4102C1.75781 16.2915 1.86523 17.0264 2.01172 17.5781C2.32422 18.7476 3.24219 19.6704 4.41162 19.9829C5.1001 20.1685 6.45508 20.2832 8.35938 20.354C9.26514 20.3882 10.2344 20.4102 11.2036 20.4224C11.543 20.4272 11.8579 20.4297 12.1411 20.4321H12.8589C13.1421 20.4297 13.457 20.4272 13.7964 20.4224C14.7656 20.4102 15.7349 20.3882 16.6406 20.354C18.5449 20.2808 19.8999 20.166 20.5884 19.9829C21.7578 19.6704 22.6758 18.75 22.9883 17.5781C23.1372 17.0264 23.2422 16.2915 23.3154 15.4102C23.3691 14.7705 23.4033 14.0918 23.4229 13.4106C23.4302 13.1738 23.4326 12.9517 23.4351 12.7539C23.4351 12.6831 23.4375 12.6221 23.4375 12.5684V12.4316ZM21.6797 12.5586C21.6797 12.6099 21.6797 12.666 21.6772 12.7319C21.6748 12.9224 21.6699 13.1323 21.665 13.3594C21.6479 14.0088 21.6138 14.6582 21.5625 15.2612C21.4966 16.0474 21.4038 16.6919 21.2891 17.124C21.1377 17.688 20.6934 18.1348 20.1318 18.2837C19.6191 18.4204 18.3276 18.5303 16.5723 18.5962C15.6836 18.6304 14.7266 18.6523 13.772 18.6646C13.4375 18.6694 13.1274 18.6719 12.8491 18.6719H12.1509L11.228 18.6646C10.2734 18.6523 9.31885 18.6304 8.42773 18.5962C6.67236 18.5278 5.37842 18.4204 4.86816 18.2837C4.30664 18.1323 3.8623 17.688 3.71094 17.124C3.59619 16.6919 3.50342 16.0474 3.4375 15.2612C3.38623 14.6582 3.35449 14.0088 3.33496 13.3594C3.32764 13.1323 3.3252 12.9199 3.32275 12.7319C3.32275 12.666 3.32031 12.6074 3.32031 12.5586V12.4414C3.32031 12.3901 3.32031 12.334 3.32275 12.2681C3.3252 12.0776 3.33008 11.8677 3.33496 11.6406C3.35205 10.9912 3.38623 10.3418 3.4375 9.73877C3.50342 8.95264 3.59619 8.30811 3.71094 7.87598C3.8623 7.31201 4.30664 6.86523 4.86816 6.71631C5.38086 6.57959 6.67236 6.46973 8.42773 6.40381C9.31641 6.36963 10.2734 6.34766 11.228 6.33545C11.5625 6.33057 11.8726 6.32813 12.1509 6.32813H12.8491L13.772 6.33545C14.7266 6.34766 15.6812 6.36963 16.5723 6.40381C18.3276 6.47217 19.6216 6.57959 20.1318 6.71631C20.6934 6.86768 21.1377 7.31201 21.2891 7.87598C21.4038 8.30811 21.4966 8.95264 21.5625 9.73877C21.6138 10.3418 21.6455 10.9912 21.665 11.6406C21.6724 11.8677 21.6748 12.0801 21.6772 12.2681C21.6772 12.334 21.6797 12.3926 21.6797 12.4414V12.5586ZM10.3271 15.7715L15.9912 12.4756L10.3271 9.22852V15.7715Z" fill="#5A534B"/>
</svg>
