<?xml version="1.0" encoding="utf-8"?>
<svg viewBox="0 0 27 25" xmlns="http://www.w3.org/2000/svg" xmlns:xlink="http://www.w3.org/1999/xlink"><style>:root>svg{display:none}:root>svg:target{display:block}</style>
<svg width="115" height="64" viewBox="0 0 115 64" id="logo" xmlns="http://www.w3.org/2000/svg">
<path d="M34.2846 0.671125C34.5204 0.644509 34.5453 0.322788 34.3089 0.301656C22.3916 -0.763783 0 3.8697 0 31.5C0 47 13 63.5 32.5 63.5C36.3024 63.5 45.075 62.8674 51.0864 56.9636C51.2502 56.8028 51.0529 56.558 50.8524 56.6696C42.2481 61.4584 33.9362 61 32.5 61C21.5 61 3.5 50.5 3 31.5C3 20.2423 8.17482 3.61821 34.2846 0.671125Z"/>
<path d="M34.2846 0.671125C34.5204 0.644509 34.5453 0.322788 34.3089 0.301656C22.3916 -0.763783 0 3.8697 0 31.5C0 47 13 63.5 32.5 63.5C36.3024 63.5 45.075 62.8674 51.0864 56.9636C51.2502 56.8028 51.0529 56.558 50.8524 56.6696C42.2481 61.4584 33.9362 61 32.5 61C21.5 61 3.5 50.5 3 31.5C3 20.2423 8.17482 3.61821 34.2846 0.671125Z"/>
<path d="M31.0549 35.0734C28.3554 36.4233 26.293 37.6058 24.8676 38.621C23.2263 39.7981 21.9899 40.9158 21.1585 41.9741C20.7049 42.5572 20.3324 43.189 20.0408 43.8693C19.7385 44.5605 19.5873 45.1976 19.5873 45.7808C19.5873 46.9363 20.084 47.514 21.0775 47.514C23.2695 47.514 25.3319 45.7322 27.2648 42.1685C29.0573 38.9611 30.3207 36.5961 31.0549 35.0734ZM36.9183 24.8359C36.3244 25.8078 35.5685 27.3467 34.6507 29.4525C33.7329 31.5583 33.0418 33.0432 32.5775 33.9071C35.1042 32.7192 37.2746 31.4341 39.0887 30.0518C39.4883 29.7279 39.85 29.3985 40.1739 29.0637C40.5087 28.7181 40.7192 28.4752 40.8056 28.3348C40.8488 28.27 40.892 28.2376 40.9352 28.2376C40.9784 28.2376 41 28.2538 41 28.2862C41 28.3186 40.9892 28.3564 40.9676 28.3996C40.3197 29.2095 39.6718 29.8791 39.0239 30.4082C38.3869 30.9374 37.442 31.5799 36.1894 32.3359C34.9369 33.081 33.6357 33.7883 32.2859 34.4579C31.3897 36.2505 29.9751 38.7775 28.0423 42.0389C27.2216 43.3996 26.2282 44.6631 25.062 45.8294C24.4141 46.4773 23.7014 47.0011 22.9239 47.4006C22.1465 47.8002 21.3528 48 20.543 48C19.7223 48 19.096 47.8002 18.6641 47.4006C18.2214 47.0119 18 46.4773 18 45.797C18 45.1274 18.1782 44.4363 18.5345 43.7235C18.8908 43.0216 19.3444 42.3682 19.8951 41.7635C20.435 41.1587 21.1153 40.5324 21.9359 39.8844C22.7566 39.2473 23.5394 38.6911 24.2845 38.216C25.0404 37.7408 25.8988 37.2387 26.8599 36.7095C28.1556 35.9968 29.6512 35.2462 31.3465 34.4579L34.0352 28.7883C32.7934 29.9546 31.935 30.7268 31.4599 31.1048C30.1425 32.1091 28.9061 32.6112 27.7507 32.6112C26.9516 32.6112 26.3092 32.3952 25.8232 31.9633C25.3373 31.5313 25.0944 30.9266 25.0944 30.149C25.0944 29.5659 25.3319 28.7235 25.807 27.622C26.293 26.5205 26.8275 25.4676 27.4106 24.4633C28.9547 21.8067 29.7268 20.2246 29.7268 19.7171C29.7268 19.3391 29.6134 19.0367 29.3866 18.8099C29.1707 18.5724 28.8251 18.4536 28.35 18.4536C27.8857 18.4536 27.4484 18.5454 27.038 18.7289C26.6385 18.9017 26.2066 19.2203 25.7423 19.6847C25.6883 19.7387 25.6343 19.7981 25.5803 19.8629C25.4831 19.9816 25.4183 20.041 25.3859 20.041C25.3211 20.041 25.2887 20.0032 25.2887 19.9276C25.2887 19.8521 25.4075 19.6955 25.6451 19.4579C26.5845 18.486 27.6967 18 28.9817 18C29.6296 18 30.1317 18.1566 30.488 18.4698C30.8444 18.7721 31.0225 19.1555 31.0225 19.6199C31.0225 20.149 30.2883 21.6933 28.8197 24.2527C28.269 25.2138 27.7615 26.2343 27.2972 27.3143C26.8437 28.3942 26.6169 29.2581 26.6169 29.906C26.6169 30.5432 26.7897 31.0238 27.1352 31.3477C27.4808 31.6717 27.9343 31.8337 28.4958 31.8337C30.1155 31.8337 32.1347 30.3758 34.5535 27.46C34.7695 26.9957 35.0556 26.3747 35.412 25.5972C35.7791 24.8089 36.0329 24.2689 36.1732 23.9773C36.3136 23.6749 36.508 23.2592 36.7563 22.73C37.0155 22.2009 37.2099 21.8229 37.3394 21.5961C37.469 21.3585 37.631 21.067 37.8253 20.7214C38.1493 20.149 38.4516 19.6901 38.7324 19.3445C39.0131 19.0097 39.1859 18.8099 39.2507 18.7451C39.4451 18.5508 39.634 18.4536 39.8176 18.4536C40.0012 18.4536 40.093 18.4968 40.093 18.5832C40.093 18.9719 39.6664 19.9492 38.8134 21.5151C37.9711 23.081 37.3394 24.1879 36.9183 24.8359Z"/>
<path d="M49.52 32.28C49.52 32.2 49.6467 32.0333 49.9 31.78C50.1533 31.5267 50.3733 31.2867 50.56 31.06C50.76 30.82 50.9067 30.64 51 30.52C51.1067 30.3867 51.1733 30.32 51.2 30.32C51.28 30.32 51.32 30.3467 51.32 30.4L51.14 30.68C51.02 30.8667 50.96 31.04 50.96 31.2C50.96 31.76 51.06 32.26 51.26 32.7C51.4733 33.14 51.7333 33.4933 52.04 33.76C52.36 34.0133 52.72 34.2267 53.12 34.4C53.8 34.6933 54.52 34.84 55.28 34.84C56.8133 34.84 58.06 34.3533 59.02 33.38C59.9933 32.4067 60.48 31.4267 60.48 30.44C60.48 29.3733 60 28.22 59.04 26.98C58.64 26.46 58.2267 25.9467 57.8 25.44C56.84 24.24 56.36 23.1867 56.36 22.28C56.36 21.3733 56.72 20.5267 57.44 19.74C58.1733 18.9533 59.04 18.3467 60.04 17.92C61.0533 17.4933 62.0133 17.28 62.92 17.28C64.0133 17.28 64.8933 17.6667 65.56 18.44C65.8533 18.7867 66 19.0133 66 19.12C66 19.2267 65.9533 19.32 65.86 19.4C65.7133 19.52 65.4867 19.6867 65.18 19.9C64.8867 20.1 64.7133 20.2 64.66 20.2C64.62 20.2 64.6 20.16 64.6 20.08C64.6 19.6 64.3133 19.16 63.74 18.76C63.18 18.36 62.48 18.16 61.64 18.16C60.44 18.16 59.4933 18.4933 58.8 19.16C58.1067 19.8133 57.76 20.56 57.76 21.4C57.76 22.2533 58.2733 23.2733 59.3 24.46C59.7267 24.9533 60.1533 25.4533 60.58 25.96C61.6067 27.1733 62.12 28.3 62.12 29.34C62.12 30.3667 61.68 31.3867 60.8 32.4C59.92 33.4133 58.8467 34.2133 57.58 34.8C56.3133 35.3867 55.0933 35.68 53.92 35.68C53.1467 35.68 52.46 35.5733 51.86 35.36C51.26 35.12 50.8 34.8267 50.48 34.48C49.84 33.7867 49.52 33.0533 49.52 32.28ZM65.6791 27.12C65.6257 27.1467 65.5724 27.16 65.5191 27.16C65.4657 27.16 65.4391 27.1333 65.4391 27.08C65.4391 27.0267 65.7391 26.8 66.3391 26.4C66.9391 26 67.4591 25.8 67.8991 25.8C68.3524 25.8 68.6657 25.8733 68.8391 26.02C69.0257 26.1533 69.1191 26.4333 69.1191 26.86C69.1191 27.2867 68.8257 27.9867 68.2391 28.96C68.3191 28.8933 68.4724 28.7533 68.6991 28.54C68.9257 28.3133 69.0991 28.1467 69.2191 28.04C69.3391 27.9333 69.5057 27.7867 69.7191 27.6C69.9457 27.4133 70.1324 27.2667 70.2791 27.16C70.4391 27.0533 70.6191 26.9467 70.8191 26.84C71.2057 26.6267 71.5724 26.52 71.9191 26.52C72.3457 26.52 72.5591 26.8667 72.5591 27.56C72.5591 28.0133 72.4257 28.5067 72.1591 29.04L72.0391 29.32C72.2391 29.12 72.5991 28.8133 73.1191 28.4C73.6257 28 74.0791 27.6733 74.4791 27.42C75.5324 26.74 76.3991 26.4 77.0791 26.4C77.7724 26.4 78.1191 26.7067 78.1191 27.32C78.1191 27.64 77.8857 28.1867 77.4191 28.96C76.9657 29.72 76.4657 30.52 75.9191 31.36C75.3724 32.1867 74.8657 33.2067 74.3991 34.42C73.9457 35.62 73.7191 36.7467 73.7191 37.8C73.7191 38.8667 73.9791 39.8067 74.4991 40.62C75.0324 41.4333 75.7924 41.84 76.7791 41.84C77.7791 41.84 78.9391 41.3667 80.2591 40.42C81.5791 39.4867 82.5724 38.5333 83.2391 37.56C83.2924 37.48 83.3457 37.44 83.3991 37.44C83.4524 37.44 83.4791 37.46 83.4791 37.5C83.4791 37.54 83.4657 37.5867 83.4391 37.64C82.5057 38.9067 81.3724 39.9933 80.0391 40.9C78.7191 41.82 77.4857 42.28 76.3391 42.28C75.1924 42.28 74.2457 41.8867 73.4991 41.1C72.7657 40.3133 72.3991 39.3267 72.3991 38.14C72.3991 36.9667 72.5991 35.7867 72.9991 34.6C73.4124 33.4 73.8591 32.4067 74.3391 31.62C74.8191 30.8333 75.2591 30.0867 75.6591 29.38C76.0724 28.66 76.2791 28.16 76.2791 27.88C76.2791 27.5867 76.1191 27.44 75.7991 27.44C75.2924 27.44 74.6324 27.7333 73.8191 28.32C73.0191 28.9067 72.3524 29.52 71.8191 30.16C71.2857 30.8 70.7324 31.12 70.1591 31.12C70.0791 31.12 70.0391 31.0667 70.0391 30.96C70.0391 30.8533 70.0591 30.7733 70.0991 30.72C70.1391 30.6533 70.1991 30.6067 70.2791 30.58C70.3591 30.54 70.4124 30.5067 70.4391 30.48C70.9724 29.3333 71.2391 28.5667 71.2391 28.18C71.2391 27.7933 71.1324 27.6 70.9191 27.6C70.3724 27.6 69.4391 28.3067 68.1191 29.72C67.7857 30.08 67.2324 30.9333 66.4591 32.28C65.6857 33.6133 65.2657 34.32 65.1991 34.4C65.1457 34.48 65.0724 34.5467 64.9791 34.6C64.8991 34.6533 64.7857 34.7133 64.6391 34.78C64.5057 34.8333 64.3124 34.9267 64.0591 35.06C63.8057 35.2067 63.6324 35.28 63.5391 35.28C63.4457 35.28 63.3991 35.2267 63.3991 35.12C63.3991 35.0133 63.4657 34.8867 63.5991 34.74C63.7457 34.58 63.9724 34.24 64.2791 33.72C64.5991 33.2 64.9991 32.5067 65.4791 31.64C65.9724 30.7733 66.2657 30.2667 66.3591 30.12C66.4524 29.96 66.5524 29.7867 66.6591 29.6C66.7657 29.4 66.8457 29.2533 66.8991 29.16C66.9524 29.0667 67.0191 28.94 67.0991 28.78C67.1924 28.62 67.2591 28.5 67.2991 28.42C67.3524 28.3267 67.4124 28.22 67.4791 28.1C67.5457 27.9667 67.5924 27.86 67.6191 27.78C67.6591 27.7 67.6924 27.6133 67.7191 27.52C67.7724 27.3467 67.7991 27.1867 67.7991 27.04C67.7991 26.5867 67.5991 26.36 67.1991 26.36C66.9191 26.36 66.4124 26.6133 65.6791 27.12ZM80.4456 27.04C80.3256 27.12 80.2456 27.16 80.2056 27.16C80.179 27.16 80.1656 27.1333 80.1656 27.08C80.1656 27.0267 80.2056 26.9733 80.2856 26.92C81.139 26.3333 81.8723 26.04 82.4856 26.04C83.3923 26.04 83.8456 26.4533 83.8456 27.28C83.8456 27.5733 83.619 28.12 83.1656 28.92C82.7123 29.7067 82.259 30.5333 81.8056 31.4C81.3523 32.2667 81.1256 32.9467 81.1256 33.44C81.1256 34.1333 81.5923 34.48 82.5256 34.48C82.979 34.48 83.5723 34.2667 84.3056 33.84C85.0523 33.4133 85.7056 32.9667 86.2656 32.5C86.8256 32.0333 87.319 31.5667 87.7456 31.1C88.1723 30.6333 88.4323 30.32 88.5256 30.16C88.6323 30 88.7123 29.92 88.7656 29.92C88.819 29.92 88.8456 29.94 88.8456 29.98C88.8456 30.02 88.8323 30.0667 88.8056 30.12C88.1523 31 87.4323 31.7867 86.6456 32.48C85.7923 33.2933 84.859 33.9467 83.8456 34.44C82.8323 34.92 82.0256 35.16 81.4256 35.16C80.8256 35.16 80.359 35.0267 80.0256 34.76C79.6923 34.4933 79.5256 34.0933 79.5256 33.56C79.5256 33.0267 79.7723 32.3067 80.2656 31.4C80.759 30.4933 81.2523 29.6533 81.7456 28.88C82.239 28.0933 82.4856 27.5733 82.4856 27.32C82.4856 27.0533 82.4256 26.8467 82.3056 26.7C82.199 26.5533 82.059 26.48 81.8856 26.48C81.4856 26.48 81.0056 26.6667 80.4456 27.04ZM84.9256 21.68C84.9256 21.3867 85.059 21.08 85.3256 20.76C85.5656 20.44 85.8056 20.28 86.0456 20.28C86.2856 20.28 86.4656 20.3533 86.5856 20.5C86.7056 20.6333 86.7656 20.8267 86.7656 21.08C86.7656 21.3333 86.6456 21.62 86.4056 21.94C86.1656 22.2467 85.8856 22.4 85.5656 22.4C85.139 22.4 84.9256 22.16 84.9256 21.68ZM87.6861 27.16C87.6594 27.16 87.6461 27.1333 87.6461 27.08C87.6461 27.0267 87.6794 26.9733 87.7461 26.92C87.9461 26.7867 88.1461 26.6467 88.3461 26.5C88.5594 26.3533 89.3928 26.16 90.8461 25.92L94.0861 19.92C94.2461 19.5867 94.4728 19.2867 94.7661 19.02C95.0328 18.74 95.2994 18.6 95.5661 18.6C95.5794 18.6 95.5994 18.6 95.6261 18.6C95.8528 18.6 95.9661 18.6533 95.9661 18.76C95.9661 18.8667 95.6328 19.4867 94.9661 20.62C94.2994 21.7533 93.3794 23.4533 92.2061 25.72L95.9661 25.12C96.0461 25.12 96.0861 25.1333 96.0861 25.16C96.0861 25.24 95.9861 25.34 95.7861 25.46C95.5994 25.58 95.4528 25.64 95.3461 25.64C95.2394 25.64 94.1128 25.8133 91.9661 26.16L90.0461 30.16C89.3261 31.76 88.9661 32.8 88.9661 33.28C88.9661 33.76 89.1061 34.1533 89.3861 34.46C89.6661 34.7667 90.0194 34.92 90.4461 34.92C91.4861 34.92 92.3394 34.7333 93.0061 34.36C93.6861 33.9867 94.3928 33.4733 95.1261 32.82C95.8728 32.1667 96.4728 31.5867 96.9261 31.08C97.3928 30.56 97.6661 30.24 97.7461 30.12C97.8394 29.9867 97.9128 29.92 97.9661 29.92C98.0194 29.92 98.0461 29.94 98.0461 29.98C98.0461 30.02 98.0328 30.0667 98.0061 30.12C97.3661 30.96 96.6994 31.7133 96.0061 32.38C95.3128 33.0333 94.7061 33.5533 94.1861 33.94C93.6794 34.3267 93.0394 34.66 92.2661 34.94C91.5061 35.22 90.7328 35.36 89.9461 35.36C89.1728 35.36 88.5594 35.1867 88.1061 34.84C87.6661 34.4933 87.4461 33.9467 87.4461 33.2C87.4461 32.4533 87.8328 31.4 88.6061 30.04L90.5261 26.48C88.8461 26.8133 87.9594 27.0133 87.8661 27.08C87.7861 27.1333 87.7261 27.16 87.6861 27.16ZM103.285 22.04C104.379 21.1333 105.332 20.3133 106.145 19.58C106.972 18.8333 107.845 17.96 108.765 16.96C109.699 15.96 110.465 15.02 111.065 14.14C111.665 13.2467 112.165 12.28 112.565 11.24C112.965 10.1867 113.165 9.17333 113.165 8.2C113.165 7.97333 113.119 7.78666 113.025 7.64C112.932 7.48 112.805 7.4 112.645 7.4C112.045 7.4 111.152 8.26 109.965 9.98C108.779 11.6867 107.525 13.8133 106.205 16.36L103.285 22.04ZM101.005 24.24C98.2853 26.2 96.9186 27.1733 96.9053 27.16C96.8653 27.16 96.8453 27.1333 96.8453 27.08C96.8453 27.0267 96.8853 26.9733 96.9653 26.92C99.3786 25.1733 100.819 24.1067 101.285 23.72L104.765 17.12C104.885 16.8933 105.145 16.3933 105.545 15.62C105.945 14.8467 106.225 14.3133 106.385 14.02C106.559 13.7267 106.825 13.2533 107.185 12.6C107.559 11.9467 107.879 11.4467 108.145 11.1C108.412 10.74 108.739 10.3133 109.125 9.82C109.819 8.94 110.645 8.16 111.605 7.48C112.525 6.78667 113.352 6.44 114.085 6.44C114.325 6.44 114.499 6.54 114.605 6.74C114.712 6.94 114.765 7.13333 114.765 7.32C114.765 9.53333 113.772 11.8733 111.785 14.34C111.119 15.1667 110.485 15.9 109.885 16.54C109.299 17.18 108.552 17.9067 107.645 18.72C106.525 19.7333 104.965 21.0533 102.965 22.68L100.125 28.4C100.685 27.84 101.305 27.3 101.985 26.78C102.679 26.26 103.212 25.8867 103.585 25.66C104.492 25.1133 105.272 24.84 105.925 24.84C106.352 24.84 106.699 24.9933 106.965 25.3C107.232 25.6067 107.365 26.0267 107.365 26.56C107.365 27.08 107.139 27.78 106.685 28.66C106.232 29.5267 105.779 30.4267 105.325 31.36C104.872 32.2933 104.645 33.1067 104.645 33.8C104.645 34.2533 104.845 34.48 105.245 34.48C105.685 34.48 106.305 34.24 107.105 33.76C107.919 33.2667 108.712 32.68 109.485 32C110.272 31.32 110.872 30.6667 111.285 30.04C111.339 29.96 111.392 29.92 111.445 29.92C111.499 29.92 111.525 29.94 111.525 29.98C111.525 30.02 111.512 30.0667 111.485 30.12C110.765 31.08 110.045 31.8733 109.325 32.5C108.619 33.1267 107.772 33.7267 106.785 34.3C105.812 34.8733 105.005 35.16 104.365 35.16C103.459 35.16 103.005 34.6667 103.005 33.68C103.005 33.04 103.252 32.2267 103.745 31.24C104.239 30.2533 104.732 29.32 105.225 28.44C105.719 27.56 105.965 26.9667 105.965 26.66C105.965 26.3533 105.885 26.1067 105.725 25.92C105.565 25.7333 105.352 25.64 105.085 25.64C104.379 25.64 103.419 26.1733 102.205 27.24C100.992 28.2933 100.152 29.1733 99.6853 29.88C98.2053 32.08 97.352 33.7467 97.1253 34.88C97.0986 34.9867 96.9653 35.04 96.7253 35.04C96.4853 35.04 96.2853 35.06 96.1253 35.1C95.9653 35.14 95.872 35.16 95.8453 35.16C95.6053 35.16 95.4853 35.0667 95.4853 34.88C95.4853 34.7467 95.772 34.1133 96.3453 32.98C96.9186 31.8467 97.432 30.8667 97.8853 30.04C99.4986 26.96 100.539 25.0267 101.005 24.24Z"/>
<path d="M41.24 34.44C41.24 34 41.42 33.5867 41.78 33.2C42.14 32.8 42.5467 32.6 43 32.6C43.4533 32.6 43.68 32.84 43.68 33.32C43.68 33.72 43.48 34.1267 43.08 34.54C42.6933 34.9533 42.3467 35.16 42.04 35.16C41.5067 35.16 41.24 34.92 41.24 34.44Z"/>
</svg></svg>
